<?xml version="1.0" encoding="utf-8"?>
<!-- Generator: Adobe Illustrator 16.0.0, SVG Export Plug-In . SVG Version: 6.00 Build 0)  -->
<!DOCTYPE svg PUBLIC "-//W3C//DTD SVG 1.1//EN" "http://www.w3.org/Graphics/SVG/1.1/DTD/svg11.dtd">
<svg version="1.1" id="Layer_1" xmlns="http://www.w3.org/2000/svg" xmlns:xlink="http://www.w3.org/1999/xlink" x="0px" y="0px"
	 width="348.534px" height="92.25px" viewBox="145.733 92.25 348.534 92.25" enable-background="new 145.733 92.25 348.534 92.25"
	 xml:space="preserve">
<g>
	<g enable-background="new    ">
		<path d="M188.17,127.499c-2.616-0.192-4.265-0.338-4.941-0.436c-0.679-0.096-1.018-0.048-1.018,0.146
			c1.356,2.034,2.035,4.167,2.035,6.395c0,2.229-0.436,4.215-1.308,5.958c-0.872,1.744-2.132,3.248-3.779,4.506
			c-3.488,2.906-7.607,4.36-12.354,4.36c-1.842,0-3.488-0.146-4.941-0.437c-0.486,0.486-0.995,0.97-1.526,1.453
			c-0.534,0.486-0.799,1.043-0.799,1.672c0,0.631,0.484,1.162,1.453,1.599c0.968,0.436,2.203,0.653,3.706,0.653
			c1.501,0,3.488-0.022,5.959-0.072c2.471-0.048,4.673,0,6.612,0.146c1.937,0.146,3.706,0.631,5.305,1.453
			c1.599,0.824,2.93,1.769,3.997,2.834c2.035,2.035,3.052,4.312,3.052,6.831c0,2.518-0.727,4.988-2.18,7.412
			c-1.453,2.42-3.393,4.455-5.813,6.104c-5.232,3.681-11.143,5.522-17.731,5.522c-4.748,0-8.6-1.017-11.554-3.052
			c-2.957-2.034-4.433-4.7-4.433-7.993c0-1.939,0.895-3.756,2.688-5.45c1.792-1.696,3.608-2.979,5.45-3.852
			c-1.649-0.485-3.029-1.671-4.142-3.561c-1.115-1.89-1.671-3.852-1.671-5.886c0-1.549,2.664-3.874,7.993-6.977
			c-2.811-1.064-5.014-2.688-6.612-4.868c-1.599-2.18-2.398-4.48-2.398-6.903c0-2.421,0.459-4.48,1.381-6.177
			c0.92-1.694,2.155-3.22,3.706-4.578c3.292-2.711,7.412-4.069,12.354-4.069c4.36,0,7.75,0.776,10.173,2.325
			c0.193,0.195,0.386,0.291,0.581,0.291l12.062-1.163c0.677,0.389,1.018,0.752,1.018,1.091c0,0.34-0.268,1.14-0.799,2.397
			C189.163,126.435,188.654,127.209,188.17,127.499z M159.976,163.978c-1.067,1.356-1.599,2.762-1.599,4.215
			c0,3.197,1.065,5.668,3.197,7.412c2.13,1.744,4.625,2.616,7.485,2.616c2.856,0,5.014-0.269,6.467-0.8
			c1.453-0.533,2.616-1.188,3.488-1.962c1.454-1.26,2.18-2.956,2.18-5.086c0-2.133-1.018-3.731-3.052-4.797
			c-2.035-1.066-4.603-1.599-7.703-1.599H159.976z M166.225,123.721c-3.102,0-4.846,2.034-5.232,6.104
			c-0.097,1.163-0.145,2.351-0.145,3.562c0,1.212,0.12,2.521,0.363,3.924c0.241,1.405,0.604,2.688,1.09,3.851
			c1.258,2.521,3.052,3.779,5.377,3.779c3.1,0,4.698-2.13,4.796-6.395c0.096-1.065,0.146-2.181,0.146-3.343
			c0-1.163-0.098-2.446-0.291-3.852c-0.195-1.403-0.534-2.688-1.018-3.852C170.149,124.98,168.453,123.721,166.225,123.721z"/>
		<path d="M234.531,155.258c0.484,0.291,0.727,0.727,0.727,1.309c0,0.581-0.145,1.162-0.436,1.743
			c-0.582,0.582-1.599,1.358-3.052,2.326c-2.616,1.743-4.796,2.615-6.54,2.615s-3.32-0.509-4.723-1.525
			c-1.406-1.018-2.351-2.107-2.834-3.271c-1.358,1.358-3.27,2.521-5.741,3.488c-2.471,0.967-4.385,1.453-5.741,1.453
			c-1.358,0-2.812-0.341-4.36-1.018c-1.551-0.677-2.859-1.549-3.924-2.615c-2.423-2.421-3.633-4.844-3.633-7.267
			c0-2.421,0.509-4.336,1.526-5.741c1.018-1.403,2.083-2.275,3.198-2.616c1.112-0.338,2.42-0.799,3.924-1.381
			c1.501-0.581,3.125-1.21,4.869-1.889c2.228-0.774,5.327-1.938,9.301-3.488v-4.505c0-2.421-0.534-4.626-1.599-6.613
			c-1.067-1.984-2.471-2.979-4.215-2.979c-1.744,0-2.979,0.777-3.706,2.326c-0.727,1.551-1.235,3.149-1.526,4.796
			c-0.776,3.393-2.666,5.086-5.668,5.086c-1.26,0-2.398-0.41-3.415-1.235c-1.018-0.821-1.526-1.719-1.526-2.688
			c0-1.355,0.436-2.906,1.308-4.65c1.065-1.065,2.809-2.228,5.232-3.488c4.941-2.519,9.374-3.778,13.298-3.778
			c3.924,0,7.267,1.357,10.028,4.069c2.761,2.714,4.142,6.249,4.142,10.609v17.876c0,1.357,0.241,2.351,0.727,2.979
			c0.484,0.631,1.04,0.944,1.671,0.944c0.629,0,1.185-0.146,1.671-0.436L234.531,155.258z M213.022,156.711
			c1.258,0,2.253-0.266,2.979-0.799c0.727-0.531,1.09-0.945,1.09-1.235v-13.371c-1.067,0.486-2.157,0.945-3.27,1.381
			c-1.115,0.437-2.252,1.042-3.415,1.816c-2.132,1.454-3.175,3.393-3.125,5.813c0.048,2.423,0.702,4.095,1.962,5.015
			C210.501,156.253,211.762,156.711,213.022,156.711z"/>
		<path d="M235.838,124.883c0.774-1.064,1.792-2.13,3.052-3.197h4.214V116.6c1.839-1.646,3.608-3.391,5.305-5.232
			c1.694-1.839,3.27-3.488,4.724-4.941c0.581-0.386,1.113-0.557,1.599-0.509c0.483,0.05,0.774,0.218,0.872,0.509v15.26h10.9
			c0.386,0,0.581,0.461,0.581,1.381c0,0.922-0.727,1.962-2.18,3.125h-9.301v23.689c0,4.846,1.744,7.267,5.232,7.267
			c1.065,0,2.13-0.313,3.197-0.945c1.065-0.629,1.694-1.04,1.889-1.235c0.386,0.389,0.582,0.728,0.582,1.018
			c0,0.872-0.17,1.504-0.509,1.89c-0.34,0.389-0.824,0.872-1.453,1.453c-0.631,0.581-1.381,1.163-2.253,1.744
			c-2.521,1.551-4.628,2.325-6.322,2.325c-1.696,0-3.295-0.218-4.796-0.654c-1.503-0.436-2.834-1.235-3.997-2.397
			c-2.713-2.421-4.069-6.104-4.069-11.046v-23.107h-6.831C235.984,125.998,235.838,125.562,235.838,124.883z"/>
		<path d="M293.39,163.105c-4.555-0.483-8.745-0.727-12.571-0.727c-3.829,0-8.164,0.243-13.007,0.727
			c-0.195-0.29-0.291-0.871-0.291-1.743s0.096-1.501,0.291-1.89c2.035,0,3.536-0.218,4.505-0.654
			c0.967-0.436,1.501-0.799,1.599-1.09c0.483-0.968,0.749-2.18,0.799-3.633c0.047-1.454,0.073-3.245,0.073-5.378v-39.53
			c0-2.13-0.146-3.511-0.436-4.143c-0.291-0.629-0.704-1.04-1.235-1.235c-0.534-0.192-1.09-0.338-1.671-0.436
			c-1.358-0.386-2.375-0.581-3.052-0.581c-0.195,0-0.315-0.459-0.363-1.381c-0.05-0.92,0.073-1.477,0.363-1.672
			c6.49-0.677,12.158-1.791,17.004-3.343c0.872-0.29,1.355-0.436,1.453-0.436c0.677,0.195,1.163,0.776,1.453,1.744
			c-0.195,1.162-0.388,2.277-0.581,3.343c-0.291,1.453-0.436,3.585-0.436,6.395v20.056c0.193,0,0.531-0.266,1.017-0.799
			c0.484-0.531,1.258-1.211,2.326-2.035c1.065-0.822,2.228-1.621,3.488-2.397c2.809-1.549,5.425-2.325,7.848-2.325
			c2.42,0,4.48,0.461,6.177,1.38c1.694,0.922,3.027,2.303,3.997,4.143c1.646,3.295,2.471,8.963,2.471,17.004v6.249
			c0,4.846,0.145,7.63,0.436,8.356c0.291,0.727,0.702,1.213,1.235,1.454c0.531,0.242,1.138,0.461,1.816,0.653
			c1.163,0.195,2.275,0.291,3.343,0.291c0.193,0.389,0.291,1.018,0.291,1.89s-0.098,1.453-0.291,1.743
			c-4.846-0.483-9.036-0.727-12.571-0.727c-3.538,0-7.728,0.243-12.571,0.727c-0.195-0.29-0.291-0.871-0.291-1.743
			s0.096-1.501,0.291-1.89c2.907,0,4.553-0.531,4.941-1.599c0.581-1.258,0.872-4.311,0.872-9.156v-7.558
			c0-9.01-2.132-13.516-6.395-13.516c-1.842,0-3.44,0.437-4.796,1.308c-2.423,1.744-3.633,3.103-3.633,4.069v15.696
			c0,4.846,0.146,7.63,0.436,8.356s0.677,1.213,1.163,1.454c0.484,0.242,1.017,0.461,1.599,0.653
			c0.967,0.195,1.937,0.291,2.907,0.291c0.291,0.389,0.411,1.018,0.363,1.89C293.704,162.234,293.583,162.815,293.39,163.105z"/>
		<path d="M360.243,138.254c-5.813,0.486-13.468,0.872-22.963,1.163c0,5.91,1.646,10.271,4.941,13.08
			c2.519,2.034,5.255,3.052,8.212,3.052c2.953,0,5.254-0.531,6.902-1.599c1.646-1.065,3.002-2.13,4.07-3.197
			c0.773,0.195,1.162,0.727,1.162,1.599s-0.17,1.575-0.509,2.107c-0.341,0.533-0.995,1.308-1.962,2.325
			c-0.97,1.017-2.18,2.012-3.633,2.979c-3.684,2.521-7.22,3.778-10.609,3.778c-3.393,0-6.3-0.461-8.721-1.381
			c-2.423-0.92-4.555-2.253-6.395-3.996c-3.974-3.779-5.959-8.671-5.959-14.679c0-6.2,2.131-11.627,6.395-16.277
			c4.554-4.941,9.495-7.412,14.824-7.412c5.716,0,10.076,1.696,13.08,5.086c2.519,2.714,3.779,5.863,3.779,9.447
			c0,1.067-0.243,1.987-0.727,2.761C361.646,137.868,361.018,138.254,360.243,138.254z M337.28,135.638
			c0.192,0,0.847-0.022,1.962-0.072c1.113-0.048,2.348-0.12,3.706-0.218c3.1-0.096,5.327-0.241,6.686-0.437
			c0.872-0.096,1.308-0.654,1.308-1.671c0-1.018-0.098-2.107-0.291-3.271c-0.195-1.162-0.533-2.18-1.017-3.052
			c-1.067-2.13-2.448-3.197-4.142-3.197c-1.697,0-3.029,0.461-3.997,1.381c-0.97,0.922-1.794,2.012-2.471,3.27
			C337.861,130.892,337.28,133.312,337.28,135.638z"/>
		<path d="M379.426,162.379c-3.974,0-8.381,0.243-13.225,0.727c-0.195-0.29-0.291-0.871-0.291-1.743s0.096-1.501,0.291-1.89
			c2.035,0,3.535-0.218,4.505-0.654c0.968-0.436,1.549-0.799,1.744-1.09c0.483-1.162,0.727-4.165,0.727-9.011V136.22
			c0-0.774-0.098-1.938-0.29-3.488c-0.195-1.549-0.389-2.519-0.582-2.907c-0.679-1.258-2.713-1.889-6.104-1.889
			c-0.195-0.096-0.268-0.604-0.219-1.526c0.049-0.92,0.168-1.381,0.363-1.381c3.682-0.29,7.268-0.992,10.756-2.107
			c3.487-1.112,6.15-2.107,7.992-2.979c0.291,0.098,0.629,0.34,1.018,0.727c0.387,0.388,0.557,0.679,0.509,0.872
			c-0.05,0.195-0.122,0.631-0.218,1.308c-0.098,0.679-0.195,1.431-0.291,2.253c-0.098,0.824-0.195,1.623-0.291,2.397
			c-0.098,0.776-0.145,1.285-0.145,1.526c0,0.243,0.096,0.388,0.291,0.436c0.192,0.05,0.29,0.025,0.29-0.072
			c1.744-2.907,3.197-4.941,4.36-6.104c2.518-2.325,5.086-3.487,7.703-3.487c2.906,0,4.891,0.533,5.958,1.599
			c0.774,1.162,1.163,2.447,1.163,3.852c0,1.405-0.146,2.567-0.437,3.487c-0.29,0.922-0.727,1.77-1.308,2.544
			c-1.163,1.648-2.521,2.471-4.07,2.471c-0.871,0-1.623-0.291-2.252-0.872c-0.631-0.582-1.213-1.113-1.744-1.599
			c-0.533-0.484-1.067-0.945-1.599-1.381c-0.534-0.437-1.235-0.654-2.107-0.654s-1.696,0.315-2.471,0.944
			c-0.776,0.632-1.453,1.381-2.034,2.253c-1.163,1.744-1.744,3.295-1.744,4.65v11.627c0,4.846,0.145,7.63,0.436,8.356
			s0.678,1.213,1.163,1.454c0.483,0.242,1.017,0.461,1.599,0.653c0.967,0.195,1.984,0.291,3.052,0.291
			c0.193,0.389,0.291,1.018,0.291,1.89s-0.098,1.453-0.291,1.743C387.079,162.622,382.914,162.379,379.426,162.379z"/>
		<path d="M449.331,155.258c0.483,0.291,0.727,0.727,0.727,1.309c0,0.581-0.146,1.162-0.436,1.743
			c-0.581,0.582-1.599,1.358-3.052,2.326c-2.617,1.743-4.797,2.615-6.541,2.615s-3.319-0.509-4.723-1.525
			c-1.406-1.018-2.351-2.107-2.834-3.271c-1.357,1.358-3.27,2.521-5.74,3.488c-2.471,0.967-4.386,1.453-5.741,1.453
			c-1.358,0-2.812-0.341-4.36-1.018c-1.551-0.677-2.859-1.549-3.924-2.615c-2.423-2.421-3.633-4.844-3.633-7.267
			c0-2.421,0.508-4.336,1.525-5.741c1.018-1.403,2.082-2.275,3.197-2.616c1.113-0.338,2.421-0.799,3.924-1.381
			c1.502-0.581,3.125-1.21,4.869-1.889c2.228-0.774,5.327-1.938,9.301-3.488v-4.505c0-2.421-0.533-4.626-1.598-6.613
			c-1.068-1.984-2.471-2.979-4.215-2.979s-2.979,0.777-3.706,2.326c-0.728,1.551-1.235,3.149-1.526,4.796
			c-0.776,3.393-2.666,5.086-5.668,5.086c-1.26,0-2.398-0.41-3.415-1.235c-1.018-0.821-1.526-1.719-1.526-2.688
			c0-1.355,0.436-2.906,1.309-4.65c1.064-1.065,2.809-2.228,5.231-3.488c4.941-2.519,9.374-3.778,13.298-3.778
			s7.268,1.357,10.028,4.069c2.761,2.714,4.142,6.249,4.142,10.609v17.876c0,1.357,0.241,2.351,0.727,2.979
			c0.484,0.631,1.041,0.944,1.672,0.944c0.629,0,1.186-0.146,1.672-0.436L449.331,155.258z M427.822,156.711
			c1.258,0,2.252-0.266,2.979-0.799c0.727-0.531,1.09-0.945,1.09-1.235v-13.371c-1.066,0.486-2.156,0.945-3.27,1.381
			c-1.115,0.437-2.252,1.042-3.415,1.816c-2.132,1.454-3.175,3.393-3.125,5.813c0.048,2.423,0.702,4.095,1.962,5.015
			C425.301,156.253,426.562,156.711,427.822,156.711z"/>
	</g>
	<rect x="458.599" y="153.953" fill="#F7533E" width="35.668" height="10.094"/>
</g>
</svg>
